# xmcd
#
# Track frame offsets: 
#        150
#        25545
#        55452
#        89888
#        113065
#        147167
#        173311
#        209269
#        244454
#
# Disc length: 4437 seconds
#
# Revision: 25
# Processed by: cddbd v1.5.2PL0 Copyright (c) Steve Scherf et al.
# Submitted via: ExactAudioCopy v1.3
#
DISCID=79115309
DTITLE=Massive Attack - 100th window
DYEAR=2003
DGENRE=Trip-Hop
TTITLE0=Future proof
TTITLE1=What your soul sings
TTITLE2=Everywhen
TTITLE3=Special cases
TTITLE4=Butterfly caught
TTITLE5=A prayer for England
TTITLE6=Small time shot away
TTITLE7=Name taken
TTITLE8=Antistar
EXTD=
EXTT0=
EXTT1=
EXTT2=
EXTT3=
EXTT4=
EXTT5=
EXTT6=
EXTT7=
EXTT8=
PLAYORDER=
